<svg width="30" height="30" viewBox="0 0 30 30" fill="none" xmlns="http://www.w3.org/2000/svg">
<mask id="mask0_336_5132" style="mask-type:alpha" maskUnits="userSpaceOnUse" x="0" y="0" width="30" height="30">
<rect width="30" height="30" fill="#D9D9D9"/>
</mask>
<g mask="url(#mask0_336_5132)">
<path d="M7.18733 26.6346C6.55593 26.6346 6.02148 26.4158 5.58398 25.9783C5.14648 25.5408 4.92773 25.0064 4.92773 24.375V8.50969H6.8027V24.375C6.8027 24.4711 6.84277 24.5593 6.92289 24.6394C7.00302 24.7195 7.09116 24.7596 7.18733 24.7596H19.3026V26.6346H7.18733ZM11.5623 22.2596C10.9309 22.2596 10.3964 22.0408 9.95892 21.6033C9.52144 21.1658 9.3027 20.6314 9.3027 20V5.76928C9.3027 5.13789 9.52144 4.60344 9.95892 4.16594C10.3964 3.72844 10.9309 3.50969 11.5623 3.50969H22.043C22.6744 3.50969 23.2089 3.72844 23.6464 4.16594C24.0839 4.60344 24.3026 5.13789 24.3026 5.76928V20C24.3026 20.6314 24.0839 21.1658 23.6464 21.6033C23.2089 22.0408 22.6744 22.2596 22.043 22.2596H11.5623ZM11.5623 20.3847H22.043C22.1392 20.3847 22.2273 20.3446 22.3075 20.2644C22.3876 20.1843 22.4276 20.0962 22.4276 20V5.76928C22.4276 5.67312 22.3876 5.58497 22.3075 5.50485C22.2273 5.42472 22.1392 5.38466 22.043 5.38466H11.5623C11.4661 5.38466 11.378 5.42472 11.2979 5.50485C11.2177 5.58497 11.1776 5.67312 11.1776 5.76928V20C11.1776 20.0962 11.2177 20.1843 11.2979 20.2644C11.378 20.3446 11.4661 20.3847 11.5623 20.3847Z" fill="black"/>
</g>
</svg>
