<svg width="30" height="30" viewBox="0 0 30 30" fill="none" xmlns="http://www.w3.org/2000/svg">
<mask id="mask0_336_5307" style="mask-type:alpha" maskUnits="userSpaceOnUse" x="0" y="0" width="30" height="30">
<rect width="30" height="30" fill="#D9D9D9"/>
</mask>
<g mask="url(#mask0_336_5307)">
<path d="M7.18733 26.6346C6.55593 26.6346 6.02148 26.4159 5.58398 25.9784C5.14648 25.5409 4.92773 25.0064 4.92773 24.375V8.50977H6.8027V24.375C6.8027 24.4712 6.84277 24.5593 6.92289 24.6395C7.00302 24.7196 7.09116 24.7597 7.18733 24.7597H19.3026V26.6346H7.18733ZM11.5623 22.2597C10.9309 22.2597 10.3964 22.0409 9.95892 21.6034C9.52144 21.1659 9.3027 20.6315 9.3027 20.0001V5.76936C9.3027 5.13796 9.52144 4.60352 9.95892 4.16602C10.3964 3.72852 10.9309 3.50977 11.5623 3.50977H22.043C22.6744 3.50977 23.2089 3.72852 23.6464 4.16602C24.0839 4.60352 24.3026 5.13796 24.3026 5.76936V20.0001C24.3026 20.6315 24.0839 21.1659 23.6464 21.6034C23.2089 22.0409 22.6744 22.2597 22.043 22.2597H11.5623Z" fill="#9BC530"/>
</g>
</svg>
