<svg width="24" height="24" viewBox="0 0 24 24" fill="none" xmlns="http://www.w3.org/2000/svg">
<mask id="mask0_401_163" style="mask-type:alpha" maskUnits="userSpaceOnUse" x="0" y="0" width="24" height="24">
<rect width="24" height="24" fill="#D9D9D9"/>
</mask>
<g mask="url(#mask0_401_163)">
<path d="M5.75006 21.3077C5.24494 21.3077 4.81738 21.1327 4.46738 20.7827C4.11738 20.4327 3.94238 20.0051 3.94238 19.5V6.80775H5.44236V19.5C5.44236 19.5769 5.47441 19.6474 5.53851 19.7115C5.60261 19.7756 5.67312 19.8077 5.75006 19.8077H15.4423V21.3077H5.75006ZM9.25003 17.8077C8.7449 17.8077 8.31733 17.6327 7.96733 17.2827C7.61735 16.9327 7.44236 16.5051 7.44236 16V4.61542C7.44236 4.11031 7.61735 3.68275 7.96733 3.33275C8.31733 2.98275 8.7449 2.80775 9.25003 2.80775H17.6346C18.1397 2.80775 18.5673 2.98275 18.9173 3.33275C19.2673 3.68275 19.4423 4.11031 19.4423 4.61542V16C19.4423 16.5051 19.2673 16.9327 18.9173 17.2827C18.5673 17.6327 18.1397 17.8077 17.6346 17.8077H9.25003Z" fill="white"/>
</g>
</svg>
