<svg width="856" height="739" viewBox="0 0 856 739" fill="none" xmlns="http://www.w3.org/2000/svg">
<path d="M757.804 228.619C762.156 183.646 772.565 141.068 754.161 97.8199C720.383 18.4546 618.493 -23.6819 539.319 13.9112C498.831 33.0816 464.21 61.1278 419.619 71.4223C299.268 99.2002 113.507 -48.7951 48.0015 123.508C25.5147 182.63 34.5823 260.538 75.2426 309.959C88.2977 325.813 104.247 339.616 113.909 357.751C140.345 407.383 102.925 461.923 86.0547 508.219C45.9886 617.625 197.051 678.165 279.043 689.322C414.577 707.879 526.379 552.599 661.166 615.861C755.101 659.953 837.533 552.599 820.28 445.245C808.989 374.966 751.823 307.697 757.171 236.077C757.363 233.604 757.574 231.131 757.804 228.619Z" fill="#2F99C1"/>
<path opacity="0.7" d="M757.804 228.619C762.156 183.646 772.565 141.068 754.161 97.8199C720.383 18.4546 618.493 -23.6819 539.319 13.9112C498.831 33.0816 464.21 61.1278 419.619 71.4223C299.268 99.2002 113.507 -48.7951 48.0015 123.508C25.5147 182.63 34.5823 260.538 75.2426 309.959C88.2977 325.813 104.247 339.616 113.909 357.751C140.345 407.383 102.925 461.923 86.0547 508.219C45.9886 617.625 197.051 678.165 279.043 689.322C414.577 707.879 526.379 552.599 661.166 615.861C755.101 659.953 837.533 552.599 820.28 445.245C808.989 374.966 751.823 307.697 757.171 236.077C757.363 233.604 757.574 231.131 757.804 228.619Z" fill="white"/>
<path d="M112.452 257.873C149.011 257.873 178.648 228.237 178.648 191.678C178.648 155.119 149.011 125.483 112.452 125.483C75.8937 125.483 46.2571 155.119 46.2571 191.678C46.2571 228.237 75.8937 257.873 112.452 257.873Z" fill="white" stroke="#2E353A" stroke-linecap="round" stroke-linejoin="round"/>
<path d="M107.526 251.298C144.084 251.298 173.721 221.661 173.721 185.103C173.721 148.544 144.084 118.907 107.526 118.907C70.9669 118.907 41.3303 148.544 41.3303 185.103C41.3303 221.661 70.9669 251.298 107.526 251.298Z" fill="white" stroke="#2E353A" stroke-linecap="round" stroke-linejoin="round"/>
<path d="M107.526 244.723C140.453 244.723 167.145 218.03 167.145 185.103C167.145 152.176 140.453 125.483 107.526 125.483C74.5984 125.483 47.9057 152.176 47.9057 185.103C47.9057 218.03 74.5984 244.723 107.526 244.723Z" fill="#2E353A" stroke="#2E353A" stroke-linecap="round" stroke-linejoin="round"/>
<path d="M100.528 140.282C100.528 140.282 93.9529 123.834 82.4507 112.332C70.9485 100.83 24.0578 93.4108 24.0578 93.4108C31.6296 100.714 38.515 108.697 44.6276 117.259C55.3055 132.058 90.6365 165.779 90.6365 165.779C90.6365 165.779 73.3831 150.979 57.7401 149.331C42.0971 147.682 2.64444 155.906 0.228973 155.906C-2.18649 155.906 15.0285 162.482 27.3742 168.233C39.7199 173.984 87.3967 178.93 87.3967 178.93C87.3967 178.93 66.846 184.681 52.89 189.627C38.934 194.573 25.7064 230.728 25.7064 230.728C25.7064 230.728 43.8032 214.28 59.4271 210.178C75.051 206.075 97.2502 198.675 97.2502 198.675C97.2502 198.675 83.275 214.299 79.9969 224.996C76.7188 235.693 79.1726 260.346 79.1726 260.346C79.1726 260.346 86.5723 237.342 95.6208 228.274C104.669 219.207 114.504 203.698 114.504 203.698C119.058 211.122 123.18 218.803 126.849 226.702C133.425 240.678 137.527 261.209 137.527 261.209C137.527 261.209 148.224 238.205 147.4 226.702C146.576 215.2 134.249 194.63 134.249 194.63C134.249 194.63 142.473 188.879 154.8 193.806C167.126 198.733 188.52 219.303 188.52 219.303C188.52 219.303 183.574 192.157 175.35 181.479C167.126 170.802 131.776 167.485 131.776 167.485C131.776 167.485 151.522 155.983 163.848 153.51C176.175 151.037 192.604 156.807 192.604 156.807C192.604 156.807 173.702 130.486 158.902 128.838C144.103 127.189 121.903 150.155 121.903 150.155L128.498 117.259C130.127 109.035 126.849 88.5031 126.849 88.5031C126.849 88.5031 117.801 93.4299 107.104 109.054C103.973 113.554 101.778 118.637 100.649 124.001C99.5191 129.365 99.4782 134.902 100.528 140.282Z" fill="#2F99C1"/>
<path opacity="0.5" d="M100.528 140.282C100.528 140.282 93.9529 123.834 82.4507 112.332C70.9485 100.83 24.0578 93.4108 24.0578 93.4108C31.6296 100.714 38.515 108.697 44.6276 117.259C55.3055 132.058 90.6365 165.779 90.6365 165.779C90.6365 165.779 73.3831 150.979 57.7401 149.331C42.0971 147.682 2.64444 155.906 0.228973 155.906C-2.18649 155.906 15.0285 162.482 27.3742 168.233C39.7199 173.984 87.3967 178.93 87.3967 178.93C87.3967 178.93 66.846 184.681 52.89 189.627C38.934 194.573 25.7064 230.728 25.7064 230.728C25.7064 230.728 43.8032 214.28 59.4271 210.178C75.051 206.075 97.2502 198.675 97.2502 198.675C97.2502 198.675 83.275 214.299 79.9969 224.996C76.7188 235.693 79.1726 260.346 79.1726 260.346C79.1726 260.346 86.5723 237.342 95.6208 228.274C104.669 219.207 114.504 203.698 114.504 203.698C119.058 211.122 123.18 218.803 126.849 226.702C133.425 240.678 137.527 261.209 137.527 261.209C137.527 261.209 148.224 238.205 147.4 226.702C146.576 215.2 134.249 194.63 134.249 194.63C134.249 194.63 142.473 188.879 154.8 193.806C167.126 198.733 188.52 219.303 188.52 219.303C188.52 219.303 183.574 192.157 175.35 181.479C167.126 170.802 131.776 167.485 131.776 167.485C131.776 167.485 151.522 155.983 163.848 153.51C176.175 151.037 192.604 156.807 192.604 156.807C192.604 156.807 173.702 130.486 158.902 128.838C144.103 127.189 121.903 150.155 121.903 150.155L128.498 117.259C130.127 109.035 126.849 88.5031 126.849 88.5031C126.849 88.5031 117.801 93.4299 107.104 109.054C103.973 113.554 101.778 118.637 100.649 124.001C99.5191 129.365 99.4782 134.902 100.528 140.282Z" fill="black"/>
<path d="M116.727 115.246C117.302 112.888 117.935 110.53 118.644 108.21" stroke="#2E353A" stroke-width="0.5" stroke-linecap="round" stroke-linejoin="round"/>
<path d="M61.8042 115.246C69.4723 120.863 79.0575 128.665 84.0802 135.356C93.1286 147.682 111.225 174.003 111.225 174.003C110.707 156.324 112.108 138.642 115.405 121.265" stroke="#2E353A" stroke-width="0.5" stroke-linecap="round" stroke-linejoin="round"/>
<path d="M50.3787 107.386C50.3787 107.386 52.775 108.92 56.3598 111.393" stroke="#2E353A" stroke-width="0.5" stroke-linecap="round" stroke-linejoin="round"/>
<path d="M111.225 174.003C111.225 174.003 142.473 142.755 155.624 140.282C168.775 137.809 180.296 147.682 180.296 147.682" stroke="#2E353A" stroke-width="0.5" stroke-linecap="round" stroke-linejoin="round"/>
<path d="M55.3821 200.132C47.714 204.963 47.0814 207.8 47.0814 207.8" stroke="#2E353A" stroke-width="0.5" stroke-linecap="round" stroke-linejoin="round"/>
<path d="M179.472 202.778C179.472 202.778 174.545 190.432 157.273 184.681C140 178.93 112.893 178.105 112.893 178.105C112.893 178.105 74.8401 190.566 60.9224 197.065" stroke="#2E353A" stroke-width="0.5" stroke-linecap="round" stroke-linejoin="round"/>
<path d="M96.2534 173.409C105.455 176.093 112.874 178.105 112.874 178.105" stroke="#2E353A" stroke-width="0.5" stroke-linecap="round" stroke-linejoin="round"/>
<path d="M38.3397 158.801C47.2731 159.338 58.7753 160.565 65.1782 163.306C70.3926 165.549 80.6679 168.789 90.3681 171.683" stroke="#2E353A" stroke-width="0.5" stroke-linecap="round" stroke-linejoin="round"/>
<path d="M25.7064 158.379C25.7064 158.379 28.7162 158.379 33.1445 158.552" stroke="#2E353A" stroke-width="0.5" stroke-linecap="round" stroke-linejoin="round"/>
<path d="M111.225 183.032C111.225 183.032 88.221 217.539 86.5532 225.801C85.5652 230.676 85.0135 235.629 84.9045 240.601" stroke="#2E353A" stroke-width="0.5" stroke-linecap="round" stroke-linejoin="round"/>
<path d="M121.462 193.902C125.891 199.653 131.201 207.321 133.425 213.456C136.013 220.94 137.938 228.638 139.176 236.46" stroke="#2E353A" stroke-width="0.5" stroke-linecap="round" stroke-linejoin="round"/>
<path d="M114.504 185.505C114.504 185.505 116.421 187.537 118.894 190.662" stroke="#2E353A" stroke-width="0.5" stroke-linecap="round" stroke-linejoin="round"/>
<path d="M90.0805 147.375C90.0805 147.375 85.8439 130.122 88.4702 114.115C91.0966 98.1075 124.894 64.6935 124.894 64.6935C123.016 75.0415 122.085 85.5393 122.114 96.0563C122.114 114.306 113.008 162.309 113.008 162.309C113.008 162.309 118.395 140.225 130.127 129.719C141.86 119.214 178.724 102.881 180.718 101.481C182.712 100.082 172.532 115.457 165.88 127.342C159.228 139.228 123.322 171.108 123.322 171.108C123.322 171.108 143.374 163.785 157.599 159.606C171.823 155.427 203.608 177.166 203.608 177.166C203.608 177.166 179.319 174.367 164.232 180.138C149.144 185.908 126.792 192.847 126.792 192.847C126.792 192.847 147.266 197.391 156.161 204.158C165.056 210.925 177.478 232.453 177.478 232.453C177.478 232.453 158.04 218.057 145.406 215.986C132.773 213.916 115.654 206.995 115.654 206.995C116.303 215.679 117.442 224.32 119.066 232.875C121.884 248.077 130.568 267.171 130.568 267.171C130.568 267.171 108.465 254.71 102.407 244.876C96.3492 235.041 94.3939 211.155 94.3939 211.155C94.3939 211.155 84.3486 211.27 77.1405 222.466C69.9325 233.661 64.6223 262.839 64.6223 262.839C64.6223 262.839 52.8133 237.917 53.2542 224.498C53.6952 211.079 80.4953 187.729 80.4953 187.729C80.4953 187.729 57.7593 189.895 46.2954 195.071C34.8315 200.247 24.8246 214.529 24.8246 214.529C24.8246 214.529 24.8246 182.131 35.9051 172.163C46.9855 162.194 78.4441 167.945 78.4441 167.945L53.906 145.075C47.7715 139.324 38.4547 120.729 38.4547 120.729C38.4547 120.729 48.6917 119.463 66.4818 125.924C71.6528 127.734 76.4068 130.566 80.4609 134.252C84.5151 137.937 87.7865 142.4 90.0805 147.375Z" fill="#2F99C1"/>
<path d="M62.3218 136.487C60.4048 134.895 58.6028 133.362 56.6857 131.867" stroke="#2E353A" stroke-width="0.5" stroke-linecap="round" stroke-linejoin="round"/>
<path d="M106.931 104.453C103.96 113.501 100.643 125.406 100.567 133.764C100.413 149.101 101.065 180.981 101.065 180.981C91.1703 166.323 79.7092 152.786 66.8844 140.608" stroke="#2E353A" stroke-width="0.5" stroke-linecap="round" stroke-linejoin="round"/>
<path d="M111.647 91.3979C111.647 91.3979 110.574 94.0434 109.117 98.1267" stroke="#2E353A" stroke-width="0.5" stroke-linecap="round" stroke-linejoin="round"/>
<path d="M101.065 180.981C101.065 180.981 57.4526 173.83 45.3369 179.505C33.2212 185.179 29.6172 199.864 29.6172 199.864" stroke="#2E353A" stroke-width="0.5" stroke-linecap="round" stroke-linejoin="round"/>
<path d="M161.682 169.632C170.673 169.134 172.82 170.955 172.82 170.955" stroke="#2E353A" stroke-width="0.5" stroke-linecap="round" stroke-linejoin="round"/>
<path d="M62.4177 244.167C62.4177 244.167 59.2354 231.265 69.8941 216.523C80.5528 201.781 102.139 185.294 102.139 185.294C102.139 185.294 140.307 173.198 155.394 170.38" stroke="#2E353A" stroke-width="0.5" stroke-linecap="round" stroke-linejoin="round"/>
<path d="M112.893 171.779C106.989 179.313 102.158 185.294 102.158 185.294" stroke="#2E353A" stroke-width="0.5" stroke-linecap="round" stroke-linejoin="round"/>
<path d="M151.407 126.135C144.467 131.886 135.84 139.554 132.236 145.439C129.303 150.308 122.843 158.858 116.651 166.929" stroke="#2E353A" stroke-width="0.5" stroke-linecap="round" stroke-linejoin="round"/>
<path d="M161.414 118.409C161.414 118.409 158.979 120.173 155.471 122.895" stroke="#2E353A" stroke-width="0.5" stroke-linecap="round" stroke-linejoin="round"/>
<path d="M106.337 188.362C106.337 188.362 145.195 202.969 151.311 208.701C154.957 212.083 158.294 215.785 161.279 219.763" stroke="#2E353A" stroke-width="0.5" stroke-linecap="round" stroke-linejoin="round"/>
<path d="M104.362 203.123C104.094 210.369 104.228 219.667 106.049 225.993C108.309 233.593 111.241 240.978 114.81 248.058" stroke="#2E353A" stroke-width="0.5" stroke-linecap="round" stroke-linejoin="round"/>
<path d="M105.11 192.196C105.11 192.196 104.803 194.918 104.573 198.944" stroke="#2E353A" stroke-width="0.5" stroke-linecap="round" stroke-linejoin="round"/>
<path d="M218.004 235.195H652.539C657.964 235.195 663.167 237.35 667.003 241.186C670.839 245.022 672.994 250.225 672.994 255.65V537.454C672.994 540.392 672.415 543.301 671.291 546.015C670.167 548.73 668.519 551.196 666.441 553.273C664.364 555.351 661.898 556.999 659.184 558.123C656.469 559.247 653.56 559.826 650.622 559.826H219.921C216.983 559.826 214.074 559.247 211.36 558.123C208.646 556.999 206.18 555.351 204.102 553.273C202.025 551.196 200.377 548.73 199.253 546.015C198.128 543.301 197.55 540.392 197.55 537.454V255.65C197.55 250.225 199.705 245.022 203.541 241.186C207.377 237.35 212.579 235.195 218.004 235.195Z" fill="white" stroke="#2E353A" stroke-linecap="round" stroke-linejoin="round"/>
<path d="M377.042 267.152H350.28V284.731H377.042V267.152Z" fill="#2E353A"/>
<path d="M290.334 375.599H265.49V400.252H290.334V375.599Z" fill="#2E353A"/>
<path d="M400.104 288.949H375.067V313.602H400.104V288.949Z" fill="#2E353A"/>
<path d="M346.043 267.152H319.281V284.731H346.043V267.152Z" fill="#2E353A"/>
<path d="M429.358 288.949H404.321V313.602H429.358V288.949Z" fill="#2E353A"/>
<path d="M408.021 267.152H381.259V284.731H408.021V267.152Z" fill="#2E353A"/>
<path d="M275.324 346.709H228.241V371.362H275.324V346.709Z" fill="#2E353A"/>
<path d="M341.577 288.949H316.54V313.602H341.577V288.949Z" fill="#2E353A"/>
<path d="M261.272 375.599H228.241V400.252H261.272V375.599Z" fill="#2E353A"/>
<path d="M439.02 267.152H412.258V284.731H439.02V267.152Z" fill="#2E353A"/>
<path d="M283.049 288.949H258.013V313.602H283.049V288.949Z" fill="#2E353A"/>
<path d="M284.066 267.152H257.304V284.731H284.066V267.152Z" fill="#2E353A"/>
<path d="M315.064 267.152H288.302V284.731H315.064V267.152Z" fill="#2E353A"/>
<path d="M312.303 288.949H287.267V313.602H312.303V288.949Z" fill="#2E353A"/>
<path d="M370.831 288.949H345.794V313.602H370.831V288.949Z" fill="#2E353A"/>
<path d="M562.995 267.152H536.233V284.731H562.995V267.152Z" fill="#2E353A"/>
<path d="M593.974 267.152H567.212V284.731H593.974V267.152Z" fill="#2E353A"/>
<path d="M575.685 288.949H550.649V313.602H575.685V288.949Z" fill="#2E353A"/>
<path d="M604.958 288.949H579.922V313.602H604.958V288.949Z" fill="#2E353A"/>
<path d="M651.255 375.599H614.39V400.252H651.255V375.599Z" fill="#2E353A"/>
<path d="M624.972 267.152H598.21V284.731H624.972V267.152Z" fill="#2E353A"/>
<path d="M253.795 288.949H228.241V313.602H253.795V288.949Z" fill="#2E353A"/>
<path d="M470.018 267.152H443.256V284.731H470.018V267.152Z" fill="#2E353A"/>
<path d="M500.997 267.152H474.236V284.731H500.997V267.152Z" fill="#2E353A"/>
<path d="M487.904 288.949H462.868V313.602H487.904V288.949Z" fill="#2E353A"/>
<path d="M546.431 288.949H521.395V313.602H546.431V288.949Z" fill="#2E353A"/>
<path d="M458.631 288.949H433.594V313.602H458.631V288.949Z" fill="#2E353A"/>
<path d="M517.158 288.949H492.122V313.602H517.158V288.949Z" fill="#2E353A"/>
<path d="M531.996 267.152H505.234V284.731H531.996V267.152Z" fill="#2E353A"/>
<path d="M493.866 375.599H469.021V400.252H493.866V375.599Z" fill="#2E353A"/>
<path d="M624.225 346.709H599.38V371.362H624.225V346.709Z" fill="#2E353A"/>
<path d="M595.143 346.709H570.298V371.362H595.143V346.709Z" fill="#2E353A"/>
<path d="M610.154 375.599H585.309V400.252H610.154V375.599Z" fill="#2E353A"/>
<path d="M581.091 375.599H556.246V400.252H581.091V375.599Z" fill="#2E353A"/>
<path d="M522.928 375.599H498.083V400.252H522.928V375.599Z" fill="#2E353A"/>
<path d="M552.01 375.599H527.165V400.252H552.01V375.599Z" fill="#2E353A"/>
<path d="M566.062 346.709H541.217V371.362H566.062V346.709Z" fill="#2E353A"/>
<path d="M537 346.709H512.155V371.362H537V346.709Z" fill="#2E353A"/>
<path d="M651.274 267.152H629.209V284.731H651.274V267.152Z" fill="#2E353A"/>
<path d="M253.086 267.152H228.241V284.731H253.086V267.152Z" fill="#2E353A"/>
<path d="M651.274 404.469H228.241V430.1H651.274V404.469Z" fill="#2E353A"/>
<path d="M651.255 288.949H609.176V313.602H651.255V288.949Z" fill="#2E353A"/>
<path d="M651.255 346.709H628.442V371.362H651.255V346.709Z" fill="#2E353A"/>
<path d="M621.426 342.3H617.189V317.838H592.344V342.3H588.127V317.838H563.282V342.3H559.045V317.838H534.201V342.3H529.964V317.838H505.119V342.3H500.902V317.838H476.057V342.3H471.82V317.838H446.975V342.3H442.739V317.838H417.894V342.3H413.676V317.838H388.832V342.3H384.595V317.838H359.75V342.3H355.513V317.838H330.669V342.3H326.451V317.838H301.606V342.3H297.37V317.838H272.525V342.3H268.288V317.838H228.241V342.491H651.255V317.838H621.426V342.3Z" fill="#2E353A"/>
<path d="M420.693 346.709H395.848V371.362H420.693V346.709Z" fill="#2E353A"/>
<path d="M507.918 346.709H483.073V371.362H507.918V346.709Z" fill="#2E353A"/>
<path d="M362.549 346.709H337.704V371.362H362.549V346.709Z" fill="#2E353A"/>
<path d="M377.559 375.599H352.715V400.252H377.559V375.599Z" fill="#2E353A"/>
<path d="M391.611 346.709H366.766V371.362H391.611V346.709Z" fill="#2E353A"/>
<path d="M333.468 346.709H308.623V371.362H333.468V346.709Z" fill="#2E353A"/>
<path d="M319.416 375.599H294.571V400.252H319.416V375.599Z" fill="#2E353A"/>
<path d="M348.478 375.599H323.633V400.252H348.478V375.599Z" fill="#2E353A"/>
<path d="M449.774 346.709H424.929V371.362H449.774V346.709Z" fill="#2E353A"/>
<path d="M464.785 375.599H439.94V400.252H464.785V375.599Z" fill="#2E353A"/>
<path d="M478.837 346.709H453.992V371.362H478.837V346.709Z" fill="#2E353A"/>
<path d="M406.641 375.599H381.796V400.252H406.641V375.599Z" fill="#2E353A"/>
<path d="M435.703 375.599H410.858V400.252H435.703V375.599Z" fill="#2E353A"/>
<path d="M304.386 346.709H279.541V371.362H304.386V346.709Z" fill="#2E353A"/>
<path d="M700.139 58.8274H167.855C165.244 58.8294 162.67 59.4318 160.329 60.5878C157.989 61.7438 155.946 63.4225 154.358 65.4942C152.769 67.5659 151.679 69.975 151.171 72.5353C150.662 75.0957 150.75 77.7386 151.426 80.2599L190.342 225.15C191.311 228.766 193.447 231.962 196.417 234.243C199.387 236.523 203.026 237.761 206.771 237.764H261.099V247.79H609.406V237.821H661.166C664.911 237.818 668.55 236.581 671.52 234.3C674.49 232.02 676.625 228.824 677.595 225.207L716.511 80.3174C717.196 77.7971 717.292 75.1529 716.792 72.5895C716.292 70.026 715.208 67.6121 713.625 65.5345C712.043 63.4569 710.003 61.7713 707.665 60.6083C705.326 59.4452 702.751 58.8359 700.139 58.8274Z" fill="#2E353A" stroke="#2E353A" stroke-linecap="round" stroke-linejoin="round"/>
<path d="M639.944 224.977H228.05L186.853 76.7325H681.122L639.944 224.977Z" fill="#2F99C1" stroke="#2E353A" stroke-linecap="round" stroke-linejoin="round"/>
<path d="M255.387 159.913V161.83H248.121V159.913H255.387Z" fill="#2E353A"/>
<path d="M264.435 159.913V161.83H257.15V159.913H264.435Z" fill="#2E353A"/>
<path d="M273.483 159.913V161.83H266.256V159.913H273.483Z" fill="#2E353A"/>
<path d="M282.513 159.913V161.83H275.247V159.913H282.513Z" fill="#2E353A"/>
<path d="M291.561 159.913V161.83H284.276V159.913H291.561Z" fill="#2E353A"/>
<path d="M300.61 159.913V161.83H293.325V159.913H300.61Z" fill="#2E353A"/>
<path d="M309.639 159.913V161.83H302.373V159.913H309.639Z" fill="#2E353A"/>
<path d="M318.591 170.016L310.578 148.66H312.495L320.508 170.016H318.591Z" fill="#2E353A"/>
<path d="M248.064 128.818V130.735H240.798V128.818H248.064Z" fill="#2E353A"/>
<path d="M257.112 128.818V130.735H249.846V128.818H257.112Z" fill="#2E353A"/>
<path d="M266.256 128.818V130.735H258.971V128.818H266.256Z" fill="#2E353A"/>
<path d="M275.209 128.818V130.735H267.924V128.818H275.209Z" fill="#2E353A"/>
<path d="M284.238 128.818V130.735H276.973V128.818H284.238Z" fill="#2E353A"/>
<path d="M299.536 128.818V130.735H292.251V128.818H299.536Z" fill="#2E353A"/>
<path d="M308.565 128.818V130.735H301.3V128.818H308.565Z" fill="#2E353A"/>
<path d="M317.614 128.818V130.735H310.348V128.818H317.614Z" fill="#2E353A"/>
<path d="M326.662 128.818V130.735H319.377V128.818H326.662Z" fill="#2E353A"/>
<path d="M335.691 128.818V130.735H328.426V128.818H335.691Z" fill="#2E353A"/>
<path d="M344.74 128.818V130.735H337.474V128.818H344.74Z" fill="#2E353A"/>
<path d="M353.788 128.818V130.735H346.503V128.818H353.788Z" fill="#2E353A"/>
<path d="M369.067 128.818V130.735H361.801V128.818H369.067Z" fill="#2E353A"/>
<path d="M378.115 128.818V130.735H370.831V128.818H378.115Z" fill="#2E353A"/>
<path d="M387.164 128.818V130.735H379.879V128.818H387.164Z" fill="#2E353A"/>
<path d="M402.366 128.818V130.735H395.1V128.818H402.366Z" fill="#2E353A"/>
<path d="M411.491 128.818V130.735H404.283V128.818H411.491Z" fill="#2E353A"/>
<path d="M420.539 128.818V130.735H413.255V128.818H420.539Z" fill="#2E353A"/>
<path d="M454.548 128.818V130.735H447.282V128.818H454.548Z" fill="#2E353A"/>
<path d="M463.596 128.818V130.735H456.311V128.818H463.596Z" fill="#2E353A"/>
<path d="M472.645 128.818V130.735H465.36V128.818H472.645Z" fill="#2E353A"/>
<path d="M481.674 128.818V130.735H474.408V128.818H481.674Z" fill="#2E353A"/>
<path d="M490.722 128.818V130.735H483.438V128.818H490.722Z" fill="#2E353A"/>
<path d="M506.001 128.818V130.735H498.735V128.818H506.001Z" fill="#2E353A"/>
<path d="M515.049 128.818V130.735H507.803V128.818H515.049Z" fill="#2E353A"/>
<path d="M524.098 128.818V130.735H516.813V128.818H524.098Z" fill="#2E353A"/>
<path d="M539.377 128.818V130.735H532.111V128.818H539.377Z" fill="#2E353A"/>
<path d="M554.675 128.818V130.735H547.39V128.818H554.675Z" fill="#2E353A"/>
<path d="M675.908 443.884L655.396 523.019L674.796 528.712L675.908 443.884Z" fill="white" stroke="#2E353A" stroke-linecap="round" stroke-linejoin="round"/>
<path d="M685.11 360.243C682.795 356.687 681.95 352.371 682.752 348.204C683.806 340.402 693.219 338.619 693.219 338.619C693.219 338.619 695.27 337.066 702.804 339.923C710.338 342.779 768.597 350.677 805.826 355.719C843.055 360.761 855.113 357.502 854.595 370.288C854.078 383.075 821.411 497.829 820.913 501.433C820.414 505.037 685.11 360.243 685.11 360.243Z" fill="white" stroke="#2E353A" stroke-miterlimit="10"/>
<path d="M841.702 381.477L685.094 360.247L659.787 546.926L816.395 568.156L841.702 381.477Z" fill="white" stroke="#2E353A" stroke-linecap="round" stroke-linejoin="round"/>
<path d="M812.593 418.713L821.699 419.959" stroke="#2E353A" stroke-width="0.5" stroke-linecap="round" stroke-linejoin="round"/>
<path d="M755.561 410.987L805.385 417.754" stroke="#2E353A" stroke-width="0.5" stroke-linecap="round" stroke-linejoin="round"/>
<path d="M695.174 402.801L748.353 410.009" stroke="#2E353A" stroke-width="0.5" stroke-linecap="round" stroke-linejoin="round"/>
<path d="M798.33 433.685L819.456 436.56" stroke="#2E353A" stroke-width="0.5" stroke-linecap="round" stroke-linejoin="round"/>
<path d="M692.931 419.403L776.725 430.752" stroke="#2E353A" stroke-width="0.5" stroke-linecap="round" stroke-linejoin="round"/>
<path d="M735.451 442.062L817.213 453.143" stroke="#2E353A" stroke-width="0.5" stroke-linecap="round" stroke-linejoin="round"/>
<path d="M690.669 435.985L727.035 440.931" stroke="#2E353A" stroke-width="0.5" stroke-linecap="round" stroke-linejoin="round"/>
<path d="M762.616 462.651L814.951 469.744" stroke="#2E353A" stroke-width="0.5" stroke-linecap="round" stroke-linejoin="round"/>
<path d="M718.198 456.613L756.615 461.827" stroke="#2E353A" stroke-width="0.5" stroke-linecap="round" stroke-linejoin="round"/>
<path d="M688.426 452.587L711.584 455.731" stroke="#2E353A" stroke-width="0.5" stroke-linecap="round" stroke-linejoin="round"/>
<path d="M793.978 483.796L812.708 486.327" stroke="#2E353A" stroke-width="0.5" stroke-linecap="round" stroke-linejoin="round"/>
<path d="M686.183 469.188L781.383 482.09" stroke="#2E353A" stroke-width="0.5" stroke-linecap="round" stroke-linejoin="round"/>
<path d="M757.516 495.739L810.465 502.928" stroke="#2E353A" stroke-width="0.5" stroke-linecap="round" stroke-linejoin="round"/>
<path d="M683.921 485.771L748.506 494.532" stroke="#2E353A" stroke-width="0.5" stroke-linecap="round" stroke-linejoin="round"/>
<path d="M773.869 514.871L808.203 519.511" stroke="#2E353A" stroke-width="0.5" stroke-linecap="round" stroke-linejoin="round"/>
<path d="M704.242 505.42L765.472 513.721" stroke="#2E353A" stroke-width="0.5" stroke-linecap="round" stroke-linejoin="round"/>
<path d="M681.678 502.372L697.034 504.443" stroke="#2E353A" stroke-width="0.5" stroke-linecap="round" stroke-linejoin="round"/>
<path d="M841.713 381.484C841.713 381.484 844.396 355.451 853.982 365.918" stroke="#2E353A" stroke-linecap="round" stroke-linejoin="round"/>
<path d="M788.611 582.025L788.438 598.569L778.795 584.958L740.09 454.772L749.906 451.839L788.611 582.025Z" fill="white" stroke="#2E353A" stroke-linecap="round" stroke-linejoin="round"/>
<path d="M746.064 457.402L740.708 458.964L778.739 589.354L784.094 587.792L746.064 457.402Z" fill="#2F99C1" stroke="#2E353A" stroke-width="0.5" stroke-linecap="round" stroke-linejoin="round"/>
<path d="M788.611 582.064L778.815 584.978L788.438 598.569L788.611 582.064Z" stroke="#2E353A" stroke-linecap="round" stroke-linejoin="round"/>
<path d="M783.626 591.764L788.438 598.569L788.534 590.307L783.626 591.764Z" fill="#2E353A" stroke="#2E353A" stroke-linecap="round" stroke-linejoin="round"/>
<path d="M740.666 438.727C739.367 439.117 738.275 440.006 737.629 441.198C736.982 442.39 736.834 443.79 737.215 445.091L740.091 454.772L749.906 451.858L747.03 442.177C746.64 440.879 745.751 439.787 744.559 439.141C743.367 438.494 741.967 438.345 740.666 438.727Z" fill="white" stroke="#2E353A" stroke-linecap="round" stroke-linejoin="round"/>
<path d="M740.666 438.727C739.367 439.117 738.275 440.006 737.629 441.198C736.982 442.39 736.834 443.79 737.215 445.091L738.595 449.711L748.391 446.797L747.03 442.177C746.64 440.879 745.751 439.787 744.559 439.141C743.367 438.494 741.967 438.345 740.666 438.727Z" fill="#2E353A" stroke="#2E353A" stroke-linecap="round" stroke-linejoin="round"/>
<path d="M257.917 361.834C256.69 363.56 255.483 365.362 254.275 367.26" stroke="white" stroke-linecap="round" stroke-linejoin="round"/>
<path d="M277.969 338.753C272.628 343.704 267.686 349.07 263.189 354.799" stroke="white" stroke-linecap="round" stroke-linejoin="round"/>
<path d="M256.211 348.933C250.974 356.279 246.228 363.964 242.006 371.937" stroke="white" stroke-linecap="round" stroke-linejoin="round"/>
<path d="M391.42 391.088C390.212 392.814 388.985 394.616 387.777 396.494" stroke="white" stroke-linecap="round" stroke-linejoin="round"/>
<path d="M411.472 368.007C406.14 372.962 401.205 378.327 396.711 384.053" stroke="white" stroke-linecap="round" stroke-linejoin="round"/>
<path d="M389.733 378.148C384.498 385.537 379.753 393.26 375.527 401.268" stroke="white" stroke-linecap="round" stroke-linejoin="round"/>
<path d="M582.778 343.642C581.034 342.453 579.194 341.264 577.296 340.076" stroke="white" stroke-linecap="round" stroke-linejoin="round"/>
<path d="M606.166 363.349C601.124 358.098 595.683 353.246 589.891 348.837" stroke="white" stroke-linecap="round" stroke-linejoin="round"/>
<path d="M595.661 341.725C588.201 336.602 580.414 331.972 572.35 327.864" stroke="white" stroke-linecap="round" stroke-linejoin="round"/>
<path d="M385.592 462.498C384.595 469.706 383.1 479.751 381.604 485.713" stroke="#2E353A" stroke-linecap="round" stroke-linejoin="round"/>
<path d="M386.704 453.737C386.704 453.737 386.55 455.098 386.263 457.303" stroke="#2E353A" stroke-linecap="round" stroke-linejoin="round"/>
<path d="M391.822 474.192C389.729 481.175 387.167 488.009 384.154 494.647" stroke="#2E353A" stroke-linecap="round" stroke-linejoin="round"/>
<path d="M487.674 484.41C487.674 484.41 488.958 501.03 497.892 509.983" stroke="#2E353A" stroke-linecap="round" stroke-linejoin="round"/>
<path d="M486.39 501.03C486.39 501.03 490.224 512.533 497.892 517.651" stroke="#2E353A" stroke-linecap="round" stroke-linejoin="round"/>
<g style="mix-blend-mode:multiply">
<path d="M225.999 589.866C225.999 589.866 234.51 583.022 234.51 524.188C234.51 465.354 244.306 422.374 256.384 403.53C268.461 384.685 279.752 377.132 285.043 377.132C290.334 377.132 286.539 383.919 279.005 393.715C271.471 403.511 264.684 408.802 261.655 420.879C258.627 432.956 258.646 448.024 262.422 446.51C266.199 444.995 272.218 414.84 277.49 403.53C282.762 392.219 295.606 377.88 303.14 371.094C310.674 364.307 327.276 343.948 334.81 349.22C342.344 354.492 337.838 362.045 333.314 365.055C328.79 368.065 310.674 386.142 302.392 397.491C294.111 408.84 288.82 437.461 293.344 438.209C297.868 438.957 311.441 396.744 318.975 387.695C326.509 378.647 356.683 353.744 363.469 352.997C370.256 352.249 371.022 362.793 364.984 368.084C358.945 373.375 338.586 395.977 331.8 409.549C325.014 423.122 321.985 448.024 327.966 441.986C333.947 435.947 343.8 411.064 352.101 402.763C360.402 394.462 385.285 368.084 391.324 371.094C397.363 374.103 395.848 381.656 390.576 386.928C385.304 392.2 364.926 420.879 359.654 435.947C354.383 451.015 348.325 493.266 351.354 487.247C354.383 481.227 364.179 450.286 369.45 437.404C374.722 424.521 385.285 418.559 386.8 424.579C388.314 430.598 385.285 433.627 381.509 447.219C377.732 460.811 377.675 497.062 366.441 517.344C355.207 537.627 310.118 581.028 304.099 596.096C299.738 606.475 294.532 616.477 288.532 626.002" fill="#2F99C1"/>
</g>
<g style="mix-blend-mode:multiply">
<path d="M644.967 594.965C644.967 594.965 636.244 583.022 636.244 524.188C636.244 465.354 626.429 422.374 614.371 403.53C602.313 384.685 590.983 377.132 585.711 377.132C580.44 377.132 584.197 383.919 591.75 393.715C599.303 403.511 606.07 408.802 609.003 420.879C611.936 432.956 612.032 448.024 608.256 446.51C604.479 444.995 598.46 414.84 593.169 403.53C587.878 392.219 575.072 377.88 567.538 371.094C560.004 364.307 543.402 343.948 535.849 349.22C528.296 354.492 532.839 362.045 537.364 365.055C541.888 368.065 559.985 386.142 568.285 397.491C576.586 408.84 581.858 437.461 577.334 438.209C572.81 438.957 559.295 396.744 551.761 387.733C544.227 378.723 514.033 353.783 507.247 353.035C500.461 352.287 499.713 362.831 505.752 368.122C511.79 373.413 532.149 396.015 538.936 409.588C545.722 423.16 548.732 448.063 542.77 442.024C536.808 435.985 526.935 411.102 518.653 402.801C510.372 394.501 485.469 368.122 479.431 371.132C473.392 374.142 474.907 381.695 480.178 386.967C485.45 392.239 505.828 420.917 511.1 435.985C516.372 451.053 522.411 493.305 519.401 487.285C516.391 481.266 506.576 450.325 501.304 437.442C496.032 424.56 485.469 418.598 483.955 424.617C482.441 430.637 485.469 433.666 489.227 447.257C492.984 460.849 493.061 497.1 504.314 517.383C515.567 537.665 559.371 577.252 565.41 592.339C571.449 607.426 582.376 631.197 582.376 631.197" fill="#2F99C1"/>
</g>
<path d="M223.123 604.359C223.123 604.359 234.433 567.417 234.433 508.507C234.433 449.596 244.23 406.693 256.307 387.849C268.384 369.004 279.676 361.451 284.967 361.451C290.258 361.451 286.462 368.237 278.928 378.033C271.394 387.829 264.608 393.12 261.579 405.179C258.55 417.237 258.569 432.343 262.346 430.829C266.122 429.314 272.142 399.159 277.413 387.849C282.685 376.538 295.529 362.199 303.063 355.412C310.597 348.626 327.199 328.267 334.733 333.539C342.267 338.811 337.762 346.364 333.238 349.374C328.713 352.383 310.597 370.461 302.316 381.81C294.034 393.159 288.743 421.78 293.267 422.528C297.792 423.275 311.364 381.062 318.898 371.995C326.432 362.927 356.606 338.063 363.393 337.315C370.179 336.568 370.946 347.111 364.907 352.403C358.868 357.694 338.509 380.295 331.723 393.868C324.937 407.441 321.908 432.343 327.889 426.304C333.87 420.266 343.724 395.382 352.025 387.082C360.325 378.781 385.208 352.402 391.247 355.412C397.286 358.422 395.771 365.975 390.499 371.247C385.228 376.519 364.85 405.179 359.578 420.266C354.306 435.353 348.248 477.585 351.277 471.546C354.306 465.508 364.102 434.605 369.374 421.703C374.646 408.802 385.208 402.84 386.723 408.878C388.237 414.917 385.208 417.927 381.432 431.499C377.655 445.072 377.598 481.342 366.364 501.644C355.13 521.945 311.307 577.06 305.268 592.147C299.229 607.234 285.657 640.418 285.657 640.418" fill="white"/>
<path d="M223.123 604.359C223.123 604.359 234.433 567.417 234.433 508.507C234.433 449.596 244.23 406.693 256.307 387.849C268.384 369.004 279.676 361.451 284.967 361.451C290.258 361.451 286.462 368.237 278.928 378.033C271.394 387.829 264.608 393.12 261.579 405.179C258.55 417.237 258.569 432.343 262.346 430.829C266.122 429.314 272.142 399.159 277.413 387.849C282.685 376.538 295.529 362.199 303.063 355.412C310.597 348.626 327.199 328.267 334.733 333.539C342.267 338.811 337.762 346.364 333.238 349.374C328.713 352.383 310.597 370.461 302.316 381.81C294.034 393.159 288.743 421.78 293.267 422.528C297.792 423.275 311.364 381.062 318.898 371.995C326.432 362.927 356.606 338.063 363.393 337.315C370.179 336.568 370.946 347.111 364.907 352.403C358.868 357.694 338.509 380.295 331.723 393.868C324.937 407.441 321.908 432.343 327.889 426.304C333.87 420.266 343.724 395.382 352.025 387.082C360.325 378.781 385.208 352.402 391.247 355.412C397.286 358.422 395.771 365.975 390.499 371.247C385.228 376.519 364.85 405.179 359.578 420.266C354.306 435.353 348.248 477.585 351.277 471.546C354.306 465.508 364.102 434.605 369.374 421.703C374.646 408.802 385.208 402.84 386.723 408.878C388.237 414.917 385.208 417.927 381.432 431.499C377.655 445.072 377.598 481.342 366.364 501.644C355.13 521.945 311.307 577.06 305.268 592.147C299.229 607.234 285.657 640.418 285.657 640.418" stroke="#2E353A" stroke-linecap="round" stroke-linejoin="round"/>
<path d="M647.536 604.359C647.536 604.359 636.225 567.417 636.225 508.507C636.225 449.596 626.41 406.693 614.352 387.849C602.294 369.004 590.964 361.451 585.692 361.451C580.42 361.451 584.178 368.237 591.731 378.033C599.284 387.829 606.051 393.12 608.984 405.179C611.917 417.237 612.013 432.343 608.237 430.829C604.46 429.314 598.441 399.159 593.149 387.849C587.858 376.538 575.053 362.199 567.519 355.412C559.985 348.626 543.383 328.267 535.83 333.539C528.277 338.811 532.82 346.364 537.345 349.374C541.869 352.383 559.966 370.461 568.266 381.81C576.567 393.159 581.839 421.78 577.315 422.528C572.791 423.275 559.218 381.062 551.684 371.995C544.15 362.927 513.957 338.063 507.17 337.315C500.384 336.568 499.636 347.111 505.675 352.403C511.714 357.694 532.073 380.295 538.859 393.868C545.645 407.441 548.655 432.343 542.693 426.304C536.731 420.266 526.858 395.382 518.577 387.082C510.295 378.781 485.393 352.402 479.354 355.412C473.315 358.422 474.83 365.975 480.102 371.247C485.374 376.519 505.752 405.179 511.024 420.266C516.295 435.353 522.334 477.585 519.324 471.546C516.315 465.508 506.499 434.605 501.228 421.703C495.956 408.802 485.393 402.84 483.878 408.878C482.364 414.917 485.393 417.927 489.15 431.499C492.908 445.072 492.984 481.342 504.237 501.644C515.49 521.945 559.295 577.06 565.333 592.147C571.372 607.234 584.945 640.418 584.945 640.418" fill="white"/>
<path d="M647.536 604.359C647.536 604.359 636.225 567.417 636.225 508.507C636.225 449.596 626.41 406.693 614.352 387.849C602.294 369.004 590.964 361.451 585.692 361.451C580.42 361.451 584.178 368.237 591.731 378.033C599.284 387.829 606.051 393.12 608.984 405.179C611.917 417.237 612.013 432.343 608.237 430.829C604.46 429.314 598.441 399.159 593.149 387.849C587.858 376.538 575.053 362.199 567.519 355.412C559.985 348.626 543.383 328.267 535.83 333.539C528.277 338.811 532.82 346.364 537.345 349.374C541.869 352.383 559.966 370.461 568.266 381.81C576.567 393.159 581.839 421.78 577.315 422.528C572.791 423.275 559.218 381.062 551.684 371.995C544.15 362.927 513.957 338.063 507.17 337.315C500.384 336.568 499.636 347.111 505.675 352.403C511.714 357.694 532.073 380.295 538.859 393.868C545.645 407.441 548.655 432.343 542.693 426.304C536.731 420.266 526.858 395.382 518.577 387.082C510.295 378.781 485.393 352.402 479.354 355.412C473.315 358.422 474.83 365.975 480.102 371.247C485.374 376.519 505.752 405.179 511.024 420.266C516.295 435.353 522.334 477.585 519.324 471.546C516.315 465.508 506.499 434.605 501.228 421.703C495.956 408.802 485.393 402.84 483.878 408.878C482.364 414.917 485.393 417.927 489.15 431.499C492.908 445.072 492.984 481.342 504.237 501.644C515.49 521.945 559.295 577.06 565.333 592.147C571.372 607.234 584.945 640.418 584.945 640.418" stroke="#2E353A" stroke-linecap="round" stroke-linejoin="round"/>
<path d="M175.389 719.381H290.411C291.906 713.63 293.785 707.189 296.162 700.211C305.211 673.104 334.503 639.21 334.503 639.21C313.509 620.721 288.839 606.883 262.115 598.608C218.024 585.035 185.741 589.022 185.741 589.022C191.684 613.525 192.337 639.012 187.658 663.787C181.907 691.699 178.073 709.355 175.389 719.381Z" fill="#2E353A" stroke="#2E353A" stroke-linecap="round" stroke-linejoin="round"/>
<path d="M579.5 719.381H699.008C695.174 709.451 686.893 687.884 678.611 666.317C667.301 636.948 671.825 597.419 667.301 597.419C662.776 597.419 611.956 594.026 587.111 601.924C562.266 609.822 534.009 632.424 534.009 632.424C546.801 647.287 557.797 663.605 566.771 681.04C572.54 693.262 576.814 706.136 579.5 719.381Z" fill="#2E353A" stroke="#2E353A" stroke-linecap="round" stroke-linejoin="round"/>
<path d="M247.239 612.41C246.415 609.151 234.146 614.059 234.146 614.059C234.146 614.059 238.248 598.531 231.711 598.531C225.174 598.531 224.35 610.033 224.35 610.033C224.35 610.033 212.081 605.145 212.081 612.487C212.081 619.829 220.247 619.695 220.247 619.695C220.247 619.695 210.432 631.964 217.794 634.399C225.155 636.833 230.043 627.862 230.043 627.862C230.043 627.862 234.951 636.047 241.546 632.769C248.14 629.491 243.175 622.149 243.175 622.149C243.175 622.149 248.044 615.688 247.239 612.41ZM230.887 624.679C230.27 624.542 229.704 624.233 229.255 623.789C228.806 623.344 228.491 622.781 228.348 622.165C228.205 621.55 228.238 620.906 228.445 620.309C228.651 619.711 229.022 619.184 229.515 618.788C230.008 618.393 230.603 618.144 231.231 618.072C231.859 617.999 232.494 618.106 233.065 618.379C233.635 618.652 234.116 619.081 234.453 619.615C234.79 620.15 234.97 620.769 234.97 621.401C234.832 622.363 234.333 623.237 233.575 623.846C232.817 624.454 231.856 624.752 230.887 624.679ZM265.221 704.045C264.397 700.786 252.128 705.693 252.128 705.693C252.128 705.693 256.23 690.165 249.674 690.165C243.118 690.165 242.332 701.668 242.332 701.668C242.332 701.668 230.063 696.76 230.063 704.102C230.063 711.444 238.248 711.464 238.248 711.464C238.248 711.464 228.433 723.733 235.795 726.186C243.156 728.64 248.044 719.63 248.044 719.63C248.044 719.63 252.952 727.816 259.547 724.538C266.141 721.26 261.176 713.917 261.176 713.917C261.176 713.917 266.026 707.227 265.221 704.045ZM248.869 716.314C248.252 716.176 247.686 715.868 247.237 715.423C246.788 714.978 246.473 714.415 246.33 713.8C246.186 713.184 246.22 712.54 246.426 711.943C246.633 711.346 247.004 710.819 247.497 710.423C247.99 710.027 248.585 709.779 249.213 709.706C249.841 709.634 250.476 709.74 251.046 710.013C251.617 710.286 252.098 710.715 252.435 711.25C252.772 711.784 252.951 712.403 252.952 713.036C252.814 713.99 252.311 714.855 251.55 715.448C250.789 716.041 249.829 716.317 248.869 716.218V716.314ZM193.275 716.314C192.45 713.036 180.2 717.943 180.2 717.943C180.2 717.943 184.284 702.415 177.747 702.415C171.21 702.415 170.385 713.917 170.385 713.917C170.385 713.917 158.116 709.01 158.116 716.371C158.116 723.733 166.302 723.733 166.302 723.733C166.302 723.733 156.487 735.983 163.848 738.436C171.21 740.89 176.098 731.899 176.098 731.899C176.098 731.899 181.006 740.066 187.6 736.807C194.195 733.548 189.249 726.186 189.249 726.186C189.249 726.186 194.099 719.477 193.294 716.218L193.275 716.314ZM176.922 728.564C176.305 728.426 175.738 728.117 175.289 727.671C174.839 727.225 174.525 726.662 174.382 726.045C174.24 725.428 174.274 724.784 174.482 724.186C174.691 723.588 175.063 723.062 175.558 722.667C176.053 722.272 176.649 722.025 177.278 721.955C177.907 721.884 178.543 721.994 179.113 722.269C179.683 722.545 180.163 722.977 180.498 723.514C180.832 724.051 181.009 724.672 181.006 725.305C180.863 726.252 180.361 727.109 179.605 727.698C178.849 728.286 177.895 728.562 176.942 728.468L176.922 728.564ZM282.359 652.553H291.35C297.887 652.553 301.971 659.914 301.971 659.914C288.091 663.902 282.379 652.457 282.379 652.457L282.359 652.553ZM273.369 716.314H282.359C288.897 716.314 292.98 723.675 292.98 723.675C279.1 727.663 273.388 716.218 273.388 716.218L273.369 716.314ZM194.923 704.045H203.914C210.451 704.045 214.535 711.406 214.535 711.406C200.636 715.394 194.923 704.045 194.923 704.045ZM238.383 646.361L243.635 653.665C247.469 658.994 243.846 666.586 243.846 666.586C232.421 657.595 238.383 646.265 238.383 646.265V646.361ZM193.409 670.784L197.511 662.79C200.521 657.039 208.918 656.694 208.918 656.694C206.1 670.918 193.409 670.784 193.409 670.784Z" fill="white"/>
<path d="M632.2 627.938C631.375 624.679 619.106 629.587 619.106 629.587C619.106 629.587 623.209 614.059 616.672 614.059C610.134 614.059 609.31 625.561 609.31 625.561C609.31 625.561 597.041 620.673 597.041 628.015C597.041 635.357 605.227 635.376 605.227 635.376C605.227 635.376 595.412 647.645 602.773 650.099C610.134 652.553 615.023 643.543 615.023 643.543C615.023 643.543 619.931 651.729 626.525 648.451C633.12 645.172 628.155 637.83 628.155 637.83C628.155 637.83 633.005 631.197 632.2 627.938ZM615.847 640.207C615.23 640.07 614.664 639.761 614.215 639.316C613.766 638.872 613.452 638.309 613.308 637.693C613.165 637.078 613.198 636.434 613.405 635.837C613.611 635.239 613.983 634.712 614.475 634.316C614.968 633.921 615.563 633.672 616.191 633.6C616.819 633.527 617.455 633.634 618.025 633.907C618.595 634.18 619.076 634.609 619.414 635.143C619.751 635.678 619.93 636.297 619.93 636.929C619.815 637.901 619.322 638.79 618.559 639.403C617.795 640.016 616.822 640.305 615.847 640.207ZM670.598 691.699C669.793 688.421 657.524 693.328 657.524 693.328C657.524 693.328 661.607 677.8 655.07 677.8C648.533 677.8 647.728 689.303 647.728 689.303C647.728 689.303 635.459 684.395 635.459 691.756C635.459 699.118 643.625 699.118 643.625 699.118C643.625 699.118 633.829 711.368 641.19 713.822C648.552 716.275 653.44 707.284 653.44 707.284C653.44 707.284 658.348 715.451 664.943 712.192C671.537 708.933 666.572 701.572 666.572 701.572C666.572 701.572 671.422 694.958 670.598 691.699ZM654.265 704.045C653.647 703.907 653.08 703.598 652.631 703.152C652.182 702.706 651.867 702.143 651.725 701.526C651.582 700.909 651.617 700.265 651.825 699.667C652.033 699.069 652.406 698.543 652.9 698.148C653.395 697.753 653.991 697.506 654.62 697.436C655.249 697.366 655.886 697.475 656.455 697.75C657.025 698.026 657.505 698.458 657.84 698.995C658.175 699.532 658.351 700.153 658.348 700.786C658.228 701.755 657.733 702.638 656.97 703.247C656.207 703.856 655.236 704.142 654.265 704.045ZM629.746 716.314C628.921 713.036 616.672 717.943 616.672 717.943C616.672 717.943 620.755 702.415 614.218 702.415C607.681 702.415 606.856 713.917 606.856 713.917C606.856 713.917 594.587 709.01 594.587 716.371C594.587 723.733 602.773 723.733 602.773 723.733C602.773 723.733 592.958 735.983 600.319 738.436C607.681 740.89 612.569 731.899 612.569 731.899C612.569 731.899 617.477 740.066 624.071 736.807C630.666 733.548 625.72 726.186 625.72 726.186C625.72 726.186 630.493 719.477 629.746 716.218V716.314ZM613.393 728.564C612.776 728.426 612.209 728.117 611.76 727.671C611.31 727.225 610.996 726.662 610.853 726.045C610.711 725.428 610.745 724.784 610.954 724.186C611.162 723.588 611.535 723.062 612.029 722.667C612.524 722.272 613.12 722.025 613.749 721.955C614.378 721.884 615.014 721.994 615.584 722.269C616.154 722.545 616.634 722.977 616.969 723.514C617.304 724.051 617.48 724.672 617.477 725.305C617.334 726.256 616.83 727.116 616.069 727.705C615.309 728.294 614.35 728.567 613.393 728.468V728.564ZM667.339 668.081H676.33C682.867 668.081 686.95 675.442 686.95 675.442C673.052 679.43 667.339 667.985 667.339 667.985V668.081ZM570.893 714.588H579.884C586.421 714.588 590.504 721.931 590.504 721.931C576.605 726.033 570.893 714.588 570.893 714.588ZM623.343 661.87L628.596 669.174C632.43 674.503 628.806 682.095 628.806 682.095C617.381 673.123 623.343 661.87 623.343 661.87ZM676.502 707.572L681.736 714.876C685.57 720.186 681.947 727.797 681.947 727.797C670.521 718.883 676.502 707.572 676.502 707.572ZM578.292 686.312L582.395 678.318C585.405 672.567 593.897 672.222 593.897 672.222C591.06 686.446 578.273 686.312 578.273 686.312H578.292Z" fill="white"/>
</svg>
