<svg width="20" height="20" viewBox="0 0 20 20" fill="none" xmlns="http://www.w3.org/2000/svg">
<mask id="mask0_352_1073" style="mask-type:alpha" maskUnits="userSpaceOnUse" x="0" y="0" width="20" height="20">
<rect width="20" height="20" fill="#D9D9D9"/>
</mask>
<g mask="url(#mask0_352_1073)">
<path d="M5.41669 16.375V4.75644C5.41669 4.38133 5.5462 4.06426 5.80523 3.80523C6.06426 3.5462 6.38133 3.41669 6.75644 3.41669H13.2436C13.6187 3.41669 13.9357 3.5462 14.1948 3.80523C14.4538 4.06426 14.5833 4.38133 14.5833 4.75644V16.375L10 14.5512L5.41669 16.375ZM6.5 14.7708L10 13.375L13.5 14.7708V4.75644C13.5 4.69233 13.4733 4.63356 13.4199 4.58012C13.3664 4.52671 13.3077 4.5 13.2436 4.5H6.75644C6.69233 4.5 6.63356 4.52671 6.58012 4.58012C6.52671 4.63356 6.5 4.69233 6.5 4.75644V14.7708Z" fill="white"/>
</g>
</svg>
