<svg width="30" height="30" viewBox="0 0 30 30" fill="none" xmlns="http://www.w3.org/2000/svg">
<mask id="mask0_336_5131" style="mask-type:alpha" maskUnits="userSpaceOnUse" x="0" y="0" width="30" height="30">
<rect width="30" height="30" fill="#D9D9D9"/>
</mask>
<g mask="url(#mask0_336_5131)">
<path d="M8.125 24.5624V7.13465C8.125 6.57199 8.31927 6.09638 8.70781 5.70784C9.09635 5.3193 9.57196 5.12503 10.1346 5.12503H19.8653C20.428 5.12503 20.9036 5.3193 21.2921 5.70784C21.6807 6.09638 21.8749 6.57199 21.8749 7.13465V24.5624L15 21.8269L8.125 24.5624ZM9.74997 22.1562L15 20.0625L20.25 22.1562V7.13465C20.25 7.03849 20.2099 6.95033 20.1298 6.87019C20.0496 6.79006 19.9615 6.75 19.8653 6.75H10.1346C10.0385 6.75 9.9503 6.79006 9.87016 6.87019C9.79003 6.95033 9.74997 7.03849 9.74997 7.13465V22.1562Z" fill="black"/>
</g>
</svg>
